<?xml version="1.0" ?><!DOCTYPE svg  PUBLIC '-//W3C//DTD SVG 1.1//EN'  'http://www.w3.org/Graphics/SVG/1.1/DTD/svg11.dtd'><svg height="512px" style="enable-background:new 0 0 512 512;" version="1.1" viewBox="0 0 512 512" width="512px" xml:space="preserve" xmlns="http://www.w3.org/2000/svg" xmlns:xlink="http://www.w3.org/1999/xlink"><g id="_x33_29_x2C__Nature_x2C__hill_x2C__landscape_x2C__mountain_x2C__water"><g><path d="M172.404,182.574c-4.97-2.965-10.788-4.687-17.012-4.687    c-9.143,0-17.425,3.706-23.409,9.677c-5.982,5.994-9.688,14.277-9.688,23.409c0,5.471,1.33,10.636,3.662,15.17    c1.918,3.706,4.501,6.997,7.607,9.722l5.917-17.35l0.098-0.24l0.011-0.065c0.119-0.218,0.251-0.437,0.425-0.61l0.022-0.043    l0.021-0.022c0.207-0.218,0.437-0.392,0.698-0.522h0.01l0.109-0.066h0.011c0.686-0.326,1.526-0.348,2.267,0l21.687,10.332    l3.072-2.18l7.978-27.375l0.022-0.066l0,0l0.021-0.043l0,0l0.011-0.044l0.012-0.022v-0.021l0.011-0.043h0.01l0.021-0.044l0,0    l0.023-0.043v-0.022l0.021-0.043l0,0l0.023-0.044l0,0l0.021-0.044l0.021-0.043v-0.021l0.121-0.197h0.011    c0.075-0.108,0.163-0.217,0.261-0.326l0,0l0.065-0.088h0.012l0.032-0.021l0.011-0.021l0.186-0.152l0.065-0.066l0.044-0.021    l2.736-2.157l0.021-0.022c0.251-0.239,0.567-0.414,0.916-0.545l2.408-0.85C180.272,188.59,176.633,185.125,172.404,182.574     M182.887,198.42l-0.13,0.043l-1.973,1.548l-7.977,27.375l-0.012,0.065l-0.021,0.021v0.022l-0.01,0.044h-0.011l-0.012,0.043v0.021    l-0.011,0.043l-0.01,0.022l-0.011,0.022v0.021l-0.023,0.043v0.022l-0.021,0.021l-0.021,0.065h-0.012l-0.011,0.044l-0.01,0.021    l-0.023,0.022l-0.01,0.021l-0.044,0.087l-0.011,0.021l-0.01,0.022l-0.021,0.021l-0.012,0.021l-0.01,0.021l-0.021,0.044    l-0.023,0.022l-0.011,0.021l-0.01,0.021l-0.023,0.021l-0.021,0.022v0.021l-0.033,0.022l-0.011,0.021l-0.021,0.021l-0.011,0.021    l-0.033,0.022v0.021l-0.044,0.022v0.021l-0.033,0.021v0.021l-0.032,0.021l-0.01,0.022l-0.033,0.021h-0.011l-0.065,0.065    L172,228.715l-0.021,0.022l-0.023,0.021l-0.021,0.022l-0.033,0.021h-0.011l-0.033,0.043l0,0l-0.098,0.066l0,0l-4.957,3.53    l-0.044,0.022c-0.153,0.131-0.327,0.239-0.513,0.326l0,0l-0.119,0.043l0,0l-0.132,0.045v0.021h-0.043    c-0.632,0.218-1.351,0.196-2.004-0.109l-20.38-9.721c-2.049,5.994-3.815,12.489-6.473,18.199    c-0.197,0.414-0.469,0.741-0.807,1.002c-4.478,10.746-9.329,20.815-14.963,32.978l-4.087,24.978    c-0.381,1.417-1.851,2.245-3.269,1.854l-17.784-4.839c-0.948-0.196-1.766-0.872-2.05-1.874l-5.666-18.92l-1.744,5.689    c-0.088,0.283-0.218,0.545-0.392,0.785L66.761,309.73l-5.166,9.546l-0.37,0.523l-3.325,3.728l-11.138,21.207h6.768l27.855-3.684    l0.655-0.044l41.127,2.985c23.289-1.154,29.599-1.438,52.092,0.742l9.721,0.064h3.399l26.265-20.466l-9.863-23.714    c-0.392-0.959-0.218-2.092,0.535-2.877l14.842-15.344l-1.525-26.896l-13.252-27.571c-0.644-1.329-0.077-2.921,1.253-3.553    s2.92-0.087,3.564,1.243l13.48,28.051c0.152,0.326,0.24,0.676,0.25,1.002l1.624,28.596c0.033,0.764-0.25,1.482-0.751,1.984    l-14.407,14.93l9.96,23.975c0.49,1.178,0.065,2.507-0.937,3.205l-22.341,17.436h39.724l-1.516-0.632    c-1.175-0.392-1.961-1.591-1.786-2.877l3.029-22.449l1.309-25.479l0.075-0.588l6.191-26.134l7.017-36.115    c0.077-0.479,0.272-0.938,0.611-1.308l11.126-12.925l-1.548-1.788l-0.326-0.501l-1.516-2.833l-13.426-2.114    c-1.056-0.087-1.993-0.806-2.321-1.874c-5.646-17.916-9.22-35.156-13.535-53.574l-8.653-19.529l-6.473,18.832    c-0.273,0.785-0.895,1.438-1.744,1.699l-13.208,4.099c-1.416,11.202-3.564,22.732-5.34,33.914    c-0.109,1.003-0.763,1.874-1.765,2.223L182.887,198.42z M400.016,343.535l-4.338-17.698l-28.846,12.358    c-0.621,0.262-1.341,0.305-2.006,0.043l-35.93-13.949c-0.85-0.326-1.516-1.111-1.668-2.092c-0.228-1.438,0.774-2.812,2.234-3.029    l33.696-5.297l5.536-28.617L368.379,263l-35.712-6.561c-1.069-0.131-2.006-0.916-2.268-2.049l-11.802-50.217l-14.592,32.279    l7.911,30.623c0.196,0.85,0,1.766-0.632,2.463l-21.534,23.234l13.818,14.297c0.24,0.219,0.437,0.502,0.588,0.807    c0.61,1.352,0.022,2.943-1.308,3.553l-31.08,14.342l24.41,19.027h51.613l9.721-0.064    C376.563,342.902,384.018,342.816,400.016,343.535z M287.496,344.799l-22.461-17.523c-1.167-0.894-1.374-2.572-0.469-3.727    c0.272-0.35,0.61-0.611,0.991-0.785l31.637-14.604l-13.023-13.491c-1.023-1.046-0.992-2.746,0.066-3.771l22.144-23.91    l-7.781-30.121c-0.152-0.61-0.088-1.242,0.153-1.766l18.222-40.301c0.6-1.329,2.179-1.939,3.53-1.329    c0.784,0.349,1.308,1.046,1.503,1.831l13.209,56.189l36.279,6.647c1.297,0.239,2.213,1.396,2.189,2.681l0.35,24.673l-0.055,0.545    l-5.917,30.688c-0.229,1.199-1.242,2.049-2.398,2.158l-25.599,4.01l25.665,9.961l30.741-13.165c1.363-0.589,2.933,0.044,3.5,1.417    l5.601,22.689l4.012,0.195l41.127-2.985l0.655,0.044l27.865,3.684h6.767l-11.138-21.207l-3.334-3.728l-0.359-0.523l-5.177-9.546    l-19.563-26.809c-0.184-0.24-0.305-0.502-0.391-0.785l-1.755-5.689l-5.646,18.92c-0.305,1.002-1.112,1.678-2.06,1.874    l-17.786,4.839c-1.427,0.392-2.887-0.437-3.28-1.854l-4.076-24.978c-8.805-18.983-15.659-32.868-22.241-52.179l-20.38,9.721    c-0.971,0.457-2.081,0.283-2.855-0.349l-4.958-3.53c-0.544-0.393-0.894-0.938-1.046-1.526l-7.977-27.375l-1.983-1.548    l-10.233-3.618c-1.002-0.349-1.668-1.22-1.776-2.223c-1.765-11.182-3.923-22.712-5.329-33.914l-13.219-4.099    c-0.84-0.261-1.461-0.914-1.723-1.699l-6.484-18.832l-8.652,19.529c-4.305,18.418-7.902,35.658-13.524,53.574    c-0.338,1.068-1.286,1.787-2.332,1.874l-13.427,2.114l-1.515,2.833l-0.326,0.479l-2.909,3.379l-0.176,0.219l-12.118,14.079    c-4.141,21.316-8.107,40.605-13.077,61.616c-0.916,17.523-1.788,29.01-4.109,46.186l2.192,0.893l25.347,2.158l0.065,0.021h0.066    l20.53,1.766H287.496z M366.385,124.445h-10.963c-0.328,0-0.633,0.108-0.851,0.305l-0.088,0.088    c-0.238,0.239-0.392,0.566-0.392,0.938l0.012,0.217c0.076,0.262,0.131,0.545,0.131,0.828c0,1.482-1.211,2.682-2.682,2.682h-18.068    c-0.359,0-0.698,0.152-0.938,0.393c-0.24,0.239-0.382,0.588-0.382,0.937c0,0.37,0.142,0.72,0.372,0.938    c0.238,0.239,0.577,0.392,0.947,0.392h29.314c0.36,0,0.687-0.152,0.928-0.392c0.25-0.218,0.402-0.567,0.402-0.938l-0.033-0.262    c-0.064-0.239-0.108-0.501-0.108-0.784c0-1.482,1.198-2.681,2.681-2.681h16.162c1.438,0,2.627,1.154,2.669,2.615    c0,0.349,0.165,0.676,0.414,0.915c0.229,0.219,0.556,0.371,0.916,0.371h29.314c0.328,0,0.634-0.131,0.852-0.306l0.086-0.087    c0.24-0.24,0.393-0.588,0.393-0.938c0-0.37-0.152-0.697-0.381-0.938c-0.24-0.239-0.579-0.393-0.949-0.393h-15.517    c-1.222,0-2.312-0.828-2.617-2.069c-0.326-1.438,0.557-2.878,1.996-3.204c0.303-0.088,0.576-0.262,0.75-0.48    c0.174-0.217,0.272-0.501,0.272-0.828c0-0.37-0.14-0.697-0.381-0.938c-0.24-0.238-0.577-0.392-0.937-0.392h-29.315    c-0.37,0-0.709,0.153-0.937,0.392c-0.24,0.219-0.394,0.545-0.394,0.895v0.043C369.065,123.246,367.867,124.445,366.385,124.445z     M69.812,214.112H28.835c-0.611,0-1.166,0.262-1.548,0.632c-0.404,0.414-0.653,0.959-0.653,1.569s0.249,1.177,0.632,1.569    c0.403,0.393,0.958,0.633,1.569,0.633l14.69,0.021c1.439,0.021,2.594,1.177,2.627,2.594l0.011,0.24    c0,0.609,0.239,1.154,0.632,1.547c0.403,0.414,0.959,0.654,1.568,0.654h40.977c0.609,0,1.165-0.24,1.548-0.633    c0.414-0.414,0.653-0.959,0.653-1.568c0-0.611-0.239-1.156-0.632-1.549c-0.404-0.414-0.96-0.653-1.569-0.653l-14.691-0.022    c-1.438-0.021-2.593-1.154-2.626-2.593l-0.011-0.24c0-0.61-0.24-1.155-0.632-1.547C70.978,214.374,70.421,214.112,69.812,214.112z     M152.712,144.824c0-1.461,1.209-2.682,2.68-2.682c1.472,0,2.681,1.221,2.681,2.682v15.234c0,1.482-1.209,2.682-2.681,2.682    c-1.471,0-2.68-1.199-2.68-2.682V144.824z M99.443,246.37c-1.275,0.741-2.909,0.305-3.651-0.981    c-0.741-1.264-0.306-2.898,0.981-3.64l13.187-7.628c1.276-0.72,2.91-0.283,3.64,0.98c0.742,1.286,0.305,2.92-0.971,3.662    L99.443,246.37z M96.772,180.221c-1.274-0.72-1.711-2.377-0.981-3.641c0.73-1.286,2.365-1.723,3.641-0.98l13.185,7.607    c1.286,0.74,1.723,2.375,0.981,3.639c-0.72,1.286-2.353,1.723-3.64,0.98L96.772,180.221z M182.016,159.536    c0.718-1.265,2.353-1.7,3.64-0.981c1.263,0.741,1.711,2.376,0.981,3.641l-4.643,8.064c-0.741,1.264-2.376,1.699-3.64,0.98    c-1.286-0.74-1.721-2.375-0.991-3.64L182.016,159.536z M97.536,213.654c-1.483,0-2.681-1.198-2.681-2.681    c0-1.46,1.198-2.681,2.681-2.681h9.284c1.483,0,2.681,1.221,2.681,2.681c0,1.482-1.198,2.681-2.681,2.681H97.536z     M124.148,162.195c-0.73-1.265-0.284-2.899,0.981-3.641c1.286-0.719,2.92-0.283,3.64,0.981l4.653,8.064    c0.73,1.265,0.295,2.899-0.991,3.64c-1.265,0.719-2.899,0.283-3.64-0.98L124.148,162.195z M307.405,364.938    c-1.481,0-2.682-1.221-2.682-2.681c0-1.482,1.2-2.682,2.682-2.682h23.31c1.473,0,2.682,1.199,2.682,2.682    c0,1.46-1.209,2.681-2.682,2.681H307.405z M460.651,375.27c1.48,0,2.681,1.199,2.681,2.681s-1.2,2.681-2.681,2.681h-96.206    c-1.473,0-2.671-1.199-2.671-2.681s1.198-2.681,2.671-2.681H460.651z M310.087,380.5c1.482,0,2.681,1.199,2.681,2.682    c0,1.459-1.198,2.658-2.681,2.658h-41.749c-1.473,0-2.682-1.199-2.682-2.658c0-1.482,1.209-2.682,2.682-2.682H310.087z     M386.197,391.05c1.482,0,2.682,1.198,2.682,2.682c0,1.481-1.199,2.681-2.682,2.681H297.51c-1.47,0-2.669-1.199-2.669-2.681    c0-1.483,1.199-2.682,2.669-2.682H386.197z M260.599,407.44c1.473,0,2.682,1.198,2.682,2.681s-1.209,2.681-2.682,2.681H218.84    c-1.473,0-2.671-1.198-2.671-2.681s1.198-2.681,2.671-2.681H260.599z M173.232,362.693c1.483,0,2.681,1.199,2.681,2.681    c0,1.483-1.198,2.681-2.681,2.681H152.94c-1.483,0-2.681-1.197-2.681-2.681c0-1.481,1.198-2.681,2.681-2.681H173.232z     M242.989,370.365c1.482,0,2.681,1.199,2.681,2.681c0,1.482-1.199,2.681-2.681,2.681h-47.417c-1.481,0-2.68-1.198-2.68-2.681    c0-1.481,1.199-2.681,2.68-2.681H242.989z M118.198,358.291c1.47,0,2.681,1.198,2.681,2.68c0,1.482-1.211,2.682-2.681,2.682    H74.019c-1.483,0-2.682-1.199-2.682-2.682c0-1.481,1.199-2.68,2.682-2.68H118.198z M135.917,387.541    c1.483,0,2.682,1.199,2.682,2.681c0,1.46-1.199,2.659-2.682,2.659H28.683c-1.481,0-2.681-1.199-2.681-2.659    c0-1.481,1.2-2.681,2.681-2.681H135.917z M257.995,122.832c-1.853-3.705-11.137,0.828-11.171,0.85    c-1.405,0.633-3.062,0-3.683-1.395c-0.632-1.395-0.01-3.051,1.395-3.684c0.033-0.021,10.211-5.188,15.965-1.199    c5.732-3.988,15.933,1.178,15.954,1.199c1.407,0.633,2.028,2.289,1.395,3.684c-0.621,1.395-2.277,2.027-3.683,1.395    c-0.021-0.021-9.328-4.555-11.182-0.85v0.021l-0.021,0.044h-0.011l-0.033,0.065l0,0l-0.034,0.065l0,0l-0.031,0.044v0.021    l-0.044,0.043l0,0l-0.033,0.066h-0.011l-0.021,0.043h-0.013l-0.031,0.065h-0.011l-0.033,0.044l-0.011,0.021l-0.033,0.021    l-0.011,0.022l-0.033,0.044h-0.021l-0.022,0.043l-0.021,0.021l-0.034,0.021l-0.01,0.021l-0.044,0.045l0,0l-0.042,0.043h-0.013    l-0.031,0.044h-0.023l-0.044,0.044h-0.01l-0.032,0.043h-0.022l-0.044,0.044l0,0l-0.055,0.044h-0.01l-0.044,0.021l0,0l-0.065,0.043    l0,0l-0.055,0.043l0,0l-0.054,0.022l-0.011,0.022l-0.055,0.021l0,0l-0.054,0.021l-0.013,0.021l-0.055,0.022h-0.011l-0.043,0.021    h-0.021l-0.044,0.022l-0.021,0.021h-0.043l-0.023,0.021h-0.044l-0.086,0.044h-0.033l-0.044,0.021h-0.021l-0.044,0.022h-0.021    h-0.044l-0.022,0.021h-0.042h-0.023l-0.054,0.021h-0.011h-0.055l-0.011,0.021h-0.054h-0.013h-0.055h-0.01l-0.055,0.022h-0.011    h-0.055h-0.022h-0.044h-0.021h-0.044h-0.021h-0.055h-0.01h-0.057h-0.011h-0.064l0,0h-0.065h-0.01l-0.057-0.022h-0.011h-0.054    h-0.011h-0.055l-0.021-0.021h-0.044h-0.023l-0.044-0.021h-0.021h-0.044l-0.021-0.021h-0.044h-0.022l-0.042-0.022h-0.022    l-0.044-0.021h-0.021l-0.108-0.044h-0.023l-0.042-0.021h-0.022l-0.032-0.021l-0.033-0.022h-0.022l-0.042-0.021h-0.023    l-0.043-0.022l-0.021-0.021l-0.044-0.021h-0.011l-0.054-0.021v-0.022l-0.065-0.022l0,0l-0.055-0.043h-0.012l-0.044-0.043l0,0    l-0.055-0.021h-0.011l-0.043-0.044h-0.011l-0.055-0.044l0,0l-0.044-0.043h-0.011l-0.044-0.044h-0.01l-0.044-0.044h-0.011    l-0.033-0.043h-0.021l-0.022-0.045l-0.021-0.021l-0.044-0.021v-0.021l-0.044-0.043l0,0l-0.042-0.044v-0.022l-0.044-0.021v-0.021    l-0.044-0.044l0,0l-0.043-0.065l0,0l-0.044-0.043l0,0l-0.032-0.066l0,0l-0.033-0.043v-0.021l-0.044-0.044l0,0l-0.033-0.065h-0.011    l-0.021-0.065l0,0l-0.033-0.044L257.995,122.832z M281.393,106.137c-1.853-3.705-11.147,0.85-11.181,0.85    c-1.406,0.633-3.063,0-3.684-1.395c-0.632-1.395-0.011-3.051,1.395-3.684c0.032-0.021,10.222-5.188,15.965-1.199    c5.733-3.988,15.934,1.178,15.965,1.199c1.407,0.633,2.017,2.289,1.396,3.684c-0.632,1.395-2.288,2.027-3.694,1.395    c-0.021,0-9.328-4.555-11.17-0.85l-0.011,0.021l-0.021,0.044v0.021l-0.044,0.044l0,0l-0.033,0.065l0,0l-0.033,0.065l0,0    l-0.042,0.043l0,0l-0.033,0.066l0,0l-0.033,0.043l-0.011,0.021l-0.032,0.044l0,0l-0.043,0.044l-0.013,0.021l-0.031,0.043h-0.011    l-0.033,0.044h-0.011l-0.033,0.044l-0.021,0.021l-0.033,0.021l-0.011,0.022l-0.033,0.044h-0.011l-0.044,0.043h-0.01l-0.034,0.043    h-0.021l-0.044,0.044l0,0l-0.044,0.044h-0.011l-0.054,0.043l0,0l-0.055,0.044h-0.011l-0.044,0.044l0,0l-0.055,0.021h-0.01    l-0.055,0.044l0,0l-0.055,0.044l0,0l-0.066,0.021l0,0l-0.055,0.021l-0.01,0.021l-0.044,0.022h-0.021l-0.044,0.021l-0.022,0.022    h-0.042l-0.023,0.021h-0.044l-0.021,0.021l-0.033,0.021l-0.099,0.021h-0.031l-0.033,0.022h-0.032l-0.033,0.021h-0.022    l-0.055,0.022h-0.011h-0.054h-0.011l-0.055,0.021h-0.011l-0.054,0.021h-0.013h-0.065h-0.01h-0.055h-0.011l-0.054,0.021h-0.013    h-0.055h-0.021h-0.044h-0.021h-0.044h-0.022h-0.055h-0.011h-0.054h-0.011h-0.055h-0.011h-0.066l0,0l-0.064-0.021l0,0h-0.065    h-0.011h-0.054h-0.013l-0.055-0.021h-0.01l-0.055-0.021H283.3h-0.044h-0.022l-0.042-0.022h-0.022l-0.044-0.021h-0.021    l-0.044-0.022h-0.021l-0.099-0.021l-0.033-0.021l-0.033-0.021h-0.032l-0.022-0.021h-0.042l-0.022-0.022l-0.044-0.021h-0.021    l-0.044-0.022l-0.021-0.021l-0.044-0.021h-0.011l-0.057-0.021l0,0l-0.064-0.044l0,0l-0.055-0.044l0,0l-0.054-0.021l0,0    l-0.055-0.044h-0.011l-0.044-0.044h-0.011l-0.044-0.043h-0.01l-0.044-0.044h-0.011l-0.044-0.044h-0.011l-0.044-0.043l0,0    l-0.044-0.043h-0.021l-0.023-0.044l-0.021-0.022l-0.033-0.021l-0.011-0.021l-0.033-0.044h-0.011l-0.044-0.044l0,0l-0.044-0.043    v-0.021l-0.042-0.044l0,0l-0.044-0.044v-0.021l-0.033-0.043H281.6l-0.033-0.066l0,0l-0.031-0.043l0,0l-0.044-0.065l0,0    l-0.033-0.065l0,0l-0.033-0.044v-0.021l-0.021-0.044L281.393,106.137z M442.125,187.217h-40.976c-0.61,0-1.167,0.262-1.558,0.654    c-0.404,0.392-0.645,0.937-0.645,1.547c0,0.632,0.24,1.177,0.632,1.568c0.403,0.393,0.96,0.654,1.57,0.654h14.689    c1.428,0.022,2.583,1.178,2.616,2.594l0.021,0.24c0,0.609,0.24,1.177,0.634,1.568c0.401,0.394,0.958,0.633,1.559,0.633h40.985    c0.61,0,1.156-0.239,1.548-0.633c0.403-0.392,0.654-0.959,0.654-1.568c0-0.61-0.251-1.155-0.632-1.548    c-0.414-0.392-0.96-0.653-1.57-0.653h-14.689c-1.438-0.022-2.595-1.178-2.627-2.594l-0.01-0.24c0-0.632-0.241-1.177-0.634-1.568    C443.279,187.479,442.735,187.217,442.125,187.217z" style="fill-rule:evenodd;clip-rule:evenodd;"/></g></g><g id="Layer_1"/></svg>