<?xml version="1.0" ?><!DOCTYPE svg  PUBLIC '-//W3C//DTD SVG 1.1//EN'  'http://www.w3.org/Graphics/SVG/1.1/DTD/svg11.dtd'><svg id="Layer_1" style="enable-background:new 0 0 30.4 30.2;" version="1.1" viewBox="0 0 30.4 30.2" xml:space="preserve" xmlns="http://www.w3.org/2000/svg" xmlns:xlink="http://www.w3.org/1999/xlink"><style type="text/css">
	.st0{fill:none;stroke:#414042;stroke-width:1.25;stroke-linecap:round;stroke-linejoin:round;stroke-miterlimit:10;}
	.st1{fill:none;stroke:#414042;stroke-width:1.1713;stroke-linecap:round;stroke-linejoin:round;stroke-miterlimit:10;}
</style><path class="st0" d="M11.5,29.1c-0.4,0-0.8-0.3-0.8-0.8V15.9c0-0.4-0.3-0.8-0.8-0.8H7.8c-0.4,0-0.8-0.3-0.8-0.8v-3  c0-0.4,0.3-0.8,0.8-0.8h2c0.4,0,0.8-0.3,0.8-0.8V5.2C10.5,2.9,13,1.1,15,1c1.5,0,4.4,0,5.8,0c0.4,0,0.8,0.4,0.8,0.8v2.9  c0,0.4-0.3,0.8-0.8,0.8h-2.3c-1.3,0-2.3,1-2.3,2.3v2c0,0.4,0.3,0.8,0.8,0.8H20c0.4,0,0.8,0.3,0.8,0.8v3.1c0,0.4-0.3,0.8-0.8,0.8  h-2.8c-0.4,0-0.8,0.3-0.8,0.8v12.4"/></svg>